<svg xmlns="http://www.w3.org/2000/svg" width="23" height="23"><path d="M22.613 10.469 19.13 6.984V2.957a1.318 1.318 0 0 0-2.637 0v1.39l-2.597-2.593c-1.282-1.285-3.512-1.281-4.793 0L.387 10.469a1.32 1.32 0 0 0 0 1.867 1.316 1.316 0 0 0 1.863 0l8.715-8.719a.78.78 0 0 1 1.066 0l8.719 8.719a1.3 1.3 0 0 0 .93.383c.34 0 .675-.125.933-.383a1.32 1.32 0 0 0 0-1.867Zm0 0" style="stroke:none;fill-rule:nonzero;fill:#000;fill-opacity:1"/><path d="M11.957 6.121a.644.644 0 0 0-.914 0l-7.668 7.664a.644.644 0 0 0-.188.457v5.59a2.374 2.374 0 0 0 2.376 2.375h3.792v-5.875h4.286v5.875h3.796a2.374 2.374 0 0 0 2.375-2.375v-5.59a.644.644 0 0 0-.187-.457Zm0 0" style="stroke:none;fill-rule:nonzero;fill:#000;fill-opacity:1"/></svg>